<svg width="26" height="20" viewBox="0 0 26 20" fill="none" xmlns="http://www.w3.org/2000/svg">
<path d="M23.295 0H2.5873C1.16475 0 0.0124239 1.12494 0.0124239 2.50037L0 17.4996C0 18.8751 1.16475 20 2.5873 20H23.295C24.7176 20 25.8824 18.8751 25.8824 17.4996V2.50037C25.8824 1.12494 24.7176 0 23.295 0ZM22.7763 5.31273L13.6276 10.8385C13.4212 10.9612 13.1836 11.0262 12.9412 11.0262C12.6988 11.0262 12.4612 10.9612 12.2547 10.8385L3.10601 5.31273C2.97804 5.2415 2.86626 5.14609 2.77731 5.03221C2.68836 4.91833 2.62408 4.78831 2.58831 4.64991C2.55253 4.51151 2.546 4.36757 2.56908 4.22667C2.59217 4.08578 2.64442 3.95082 2.7227 3.82985C2.80097 3.70889 2.90369 3.60439 3.0247 3.52261C3.14571 3.44082 3.28254 3.38342 3.42702 3.35383C3.57151 3.32424 3.72068 3.32307 3.86565 3.35039C4.01061 3.37771 4.14839 3.43295 4.27076 3.51282L12.9412 8.75056L21.6116 3.51282C21.734 3.43295 21.8717 3.37771 22.0167 3.35039C22.1617 3.32307 22.3108 3.32424 22.4553 3.35383C22.5998 3.38342 22.7366 3.44082 22.8577 3.52261C22.9787 3.60439 23.0814 3.70889 23.1597 3.82985C23.2379 3.95082 23.2902 4.08578 23.3133 4.22667C23.3364 4.36757 23.3298 4.51151 23.294 4.64991C23.2583 4.78831 23.194 4.91833 23.105 5.03221C23.0161 5.14609 22.9043 5.2415 22.7763 5.31273Z" fill="#F4F4F4"/>
</svg>
