<svg width="21" height="20" viewBox="0 0 21 20" fill="none" xmlns="http://www.w3.org/2000/svg">
<path d="M10.8824 0C8.16567 0 7.82654 0.0125 6.75985 0.06C5.69485 0.11 4.96985 0.2775 4.33235 0.525C3.67485 0.78 3.11652 1.1225 2.56069 1.67833C2.00485 2.23417 1.66152 2.79167 1.40735 3.45C1.15985 4.0875 0.991522 4.8125 0.942355 5.8775C0.892355 6.94419 0.882355 7.28331 0.882355 10C0.882355 12.7167 0.894855 13.0558 0.942355 14.1225C0.992355 15.1867 1.15985 15.9125 1.40735 16.55C1.66235 17.2067 2.00485 17.7658 2.56069 18.3217C3.11652 18.8767 3.67402 19.2208 4.33235 19.475C4.97069 19.7217 5.69569 19.8908 6.75985 19.94C7.82654 19.99 8.16567 20 10.8824 20C13.599 20 13.9382 19.9875 15.0049 19.94C16.069 19.89 16.7949 19.7217 17.4324 19.475C18.089 19.22 18.6482 18.8767 19.204 18.3217C19.759 17.7658 20.1032 17.2092 20.3574 16.55C20.604 15.9125 20.7732 15.1867 20.8224 14.1225C20.8724 13.0558 20.8824 12.7167 20.8824 10C20.8824 7.28331 20.8699 6.94419 20.8224 5.8775C20.7724 4.81333 20.604 4.08667 20.3574 3.45C20.1024 2.7925 19.759 2.23417 19.204 1.67833C18.6482 1.1225 18.0915 0.779169 17.4324 0.525C16.7949 0.2775 16.069 0.109167 15.0049 0.06C13.9382 0.01 13.599 0 10.8824 0ZM10.8824 1.8C13.5515 1.8 13.8699 1.81333 14.924 1.85917C15.899 1.905 16.4282 2.06667 16.7799 2.205C17.2482 2.38583 17.5799 2.6025 17.9315 2.95167C18.2807 3.30167 18.4974 3.63417 18.6782 4.1025C18.8149 4.45417 18.9782 4.98333 19.0224 5.95833C19.0699 7.01331 19.0807 7.33 19.0807 10C19.0807 12.67 19.0682 12.9875 19.019 14.0417C18.9682 15.0167 18.8057 15.5458 18.6682 15.8975C18.4815 16.3658 18.269 16.6975 17.919 17.0492C17.5699 17.3983 17.2324 17.615 16.769 17.7958C16.419 17.9325 15.8815 18.0958 14.9065 18.14C13.8449 18.1875 13.5324 18.1983 10.8574 18.1983C8.18154 18.1983 7.86904 18.1858 6.80819 18.1367C5.83235 18.0858 5.29485 17.9233 4.94485 17.7858C4.47069 17.5992 4.14485 17.3867 3.79569 17.0367C3.44485 16.6875 3.22069 16.35 3.04569 15.8867C2.90819 15.5367 2.74652 14.9992 2.69569 14.0242C2.65819 12.9742 2.64485 12.65 2.64485 9.9875C2.64485 7.32419 2.65819 6.99919 2.69569 5.93667C2.74652 4.96167 2.90819 4.425 3.04569 4.075C3.22069 3.6 3.44485 3.275 3.79569 2.92417C4.14485 2.575 4.47069 2.35 4.94485 2.17583C5.29485 2.0375 5.82069 1.875 6.79569 1.825C7.85817 1.7875 8.17067 1.775 10.8449 1.775L10.8824 1.8ZM10.8824 4.865C8.04485 4.865 5.74735 7.165 5.74735 10C5.74735 12.8375 8.04735 15.135 10.8824 15.135C13.7199 15.135 16.0174 12.835 16.0174 10C16.0174 7.1625 13.7174 4.865 10.8824 4.865ZM10.8824 13.3333C9.04067 13.3333 7.54904 11.8417 7.54904 10C7.54904 8.15831 9.04067 6.66669 10.8824 6.66669C12.724 6.66669 14.2157 8.15831 14.2157 10C14.2157 11.8417 12.724 13.3333 10.8824 13.3333ZM17.4207 4.6625C17.4207 5.325 16.8824 5.8625 16.2207 5.8625C15.5582 5.8625 15.0207 5.32417 15.0207 4.6625C15.0207 4.00083 15.559 3.46333 16.2207 3.46333C16.8815 3.4625 17.4207 4.00083 17.4207 4.6625Z" fill="#F4F4F4"/>
</svg>
