<svg width="160" height="36" viewBox="0 0 160 36" fill="none" xmlns="http://www.w3.org/2000/svg">
<g clip-path="url(#clip0_1_4)">
<mask id="mask0_1_4" style="mask-type:luminance" maskUnits="userSpaceOnUse" x="111" y="0" width="50" height="36">
<path d="M138.526 0H154.971C156.779 0 158.446 0.95075 159.339 2.48608C160.235 4.02141 160.219 5.91006 159.3 7.42934L146.51 28.5707C143.724 33.1734 138.663 36 133.193 36H116.747C114.942 36 113.272 35.0493 112.379 33.5139C111.483 31.9786 111.499 30.0899 112.422 28.5707L125.208 7.42934C127.994 2.82655 133.058 0 138.526 0Z" fill="white"/>
</mask>
<g mask="url(#mask0_1_4)">
<path d="M107.925 0H163.815V36H107.925V0Z" fill="#F4F4F4"/>
</g>
<path d="M8.69038 9.09668C11.585 9.09668 13.7609 9.96713 15.2147 11.7048C16.6653 13.4457 17.302 15.829 17.1182 18.8611H5.38226C5.65138 19.8312 6.12396 20.5796 6.80003 21.1095C7.48266 21.6331 8.32281 21.8933 9.3205 21.8933C10.8433 21.8933 12.1724 21.3376 13.3113 20.223L16.1337 22.9211C14.3286 24.8419 11.9001 25.799 8.84791 25.799C6.14366 25.799 3.99075 25.041 2.3892 23.5249C0.794212 22.0089 0 20.0014 0 17.4993C0 14.9746 0.794212 12.9446 2.3892 11.4093C3.99075 9.86756 6.09115 9.09668 8.69038 9.09668ZM5.29037 16.0474H11.9854C11.9854 15.0549 11.6867 14.2551 11.0927 13.6449C10.5053 13.0378 9.72745 12.7327 8.75602 12.7327C7.84366 12.7327 7.07899 13.0346 6.45871 13.632C5.84501 14.2327 5.45446 15.0389 5.29037 16.0474Z" fill="#F4F4F4"/>
<path d="M24.2428 9.04517C26.701 9.04517 28.995 9.66187 31.1216 10.8953L29.2969 14.2871C27.2293 13.1918 25.4768 12.6426 24.0328 12.6426C22.9367 12.6426 22.3919 13.0216 22.3919 13.7732C22.3919 14.1779 22.6872 14.5152 23.2845 14.7882C23.8786 15.0644 24.6104 15.3118 25.4768 15.5334C26.3432 15.7486 27.2031 16.0216 28.0629 16.3557C28.9195 16.6897 29.6448 17.2229 30.2421 17.9488C30.846 18.6779 31.1479 19.5677 31.1479 20.6212C31.1479 22.2593 30.4948 23.5377 29.1919 24.4627C27.8956 25.3814 26.2054 25.8375 24.1247 25.8375C21.1644 25.8375 18.6669 25.0666 16.6289 23.5248L18.3223 20.1972C20.2915 21.5527 22.2639 22.2272 24.2428 22.2272C25.4571 22.2272 26.0676 21.8546 26.0676 21.1094C26.0676 20.6822 25.7722 20.3257 25.188 20.043C24.6006 19.7604 23.8818 19.5098 23.0351 19.285C22.1851 19.0634 21.3351 18.7839 20.4884 18.4499C19.6482 18.1158 18.9295 17.5987 18.3355 16.8953C17.748 16.1854 17.4559 15.2957 17.4559 14.2229C17.4559 12.588 18.0861 11.316 19.3463 10.4071C20.6065 9.50127 22.2376 9.04517 24.2428 9.04517Z" fill="#F4F4F4"/>
<path d="M42.8811 9.09668C45.2342 9.09668 47.1279 9.87398 48.5653 11.4222C49.9995 12.9639 50.7182 15.0003 50.7182 17.5249C50.7182 20.011 50.0126 22.0089 48.6047 23.5249C47.2033 25.041 45.3392 25.799 43.0124 25.799C40.8234 25.799 39.1201 25.0121 37.9058 23.435V31.5035H32.5498V9.2894H37.9058V11.435C39.1398 9.87719 40.7971 9.09668 42.8811 9.09668ZM41.5815 21.6491C42.7006 21.6491 43.6064 21.2509 44.2989 20.4543C44.9881 19.6577 45.336 18.6363 45.336 17.3836C45.336 16.1245 44.9881 15.1031 44.2989 14.313C43.6064 13.526 42.7006 13.1309 41.5815 13.1309C40.5116 13.1309 39.6321 13.526 38.9429 14.313C38.2504 15.1031 37.9058 16.1213 37.9058 17.3708C37.9058 18.6491 38.2406 19.6802 38.9166 20.4671C39.5993 21.2573 40.4854 21.6491 41.5815 21.6491Z" fill="#F4F4F4"/>
<path d="M59.5864 9.09668C62.3071 9.09668 64.5027 9.86435 66.1764 11.3965C67.8469 12.9222 68.6838 14.9393 68.6838 17.4479C68.6838 19.95 67.8469 21.9671 66.1764 23.4993C64.5027 25.0346 62.3071 25.799 59.5864 25.799C56.8362 25.799 54.6275 25.0346 52.9571 23.4993C51.2833 21.9671 50.4497 19.95 50.4497 17.4479C50.4497 14.9393 51.2833 12.9222 52.9571 11.3965C54.6275 9.86435 56.8362 9.09668 59.5864 9.09668ZM59.5864 13.2594C58.464 13.2594 57.5582 13.6545 56.869 14.4414C56.1766 15.2316 55.832 16.2498 55.832 17.4993C55.832 18.768 56.1766 19.7926 56.869 20.5699C57.5582 21.3504 58.464 21.7391 59.5864 21.7391C60.6793 21.7391 61.572 21.3504 62.2644 20.5699C62.9536 19.7926 63.3015 18.768 63.3015 17.4993C63.3015 16.2498 62.9536 15.2316 62.2644 14.4414C61.572 13.6545 60.6793 13.2594 59.5864 13.2594Z" fill="#F4F4F4"/>
<path d="M75.1597 9.28928V12.0387C76.3313 10.0794 78.1397 9.0805 80.5814 9.04517V13.7732C79.0487 13.6287 77.7983 13.876 76.8269 14.5184C75.8555 15.1544 75.2976 16.0569 75.1597 17.2293V25.619H69.8037V9.28928H75.1597Z" fill="#F4F4F4"/>
<path d="M90.9767 21.1095L92.0401 24.7455C90.7339 25.4907 89.2472 25.8633 87.5767 25.8633C85.9227 25.8633 84.5837 25.4136 83.5597 24.5143C82.5423 23.6149 82.0369 22.3365 82.0369 20.6727V13.465H79.7134V10.0346H82.0369V5.49927H87.3536V10.0089H91.725V13.465H87.3536V19.8633C87.3536 20.4896 87.4783 20.9489 87.7343 21.238C87.9968 21.5303 88.3841 21.6684 88.9026 21.6492C89.4014 21.6492 90.0906 21.4693 90.9767 21.1095Z" fill="#F4F4F4"/>
<path d="M100.268 9.09668C103.162 9.09668 105.338 9.96713 106.792 11.7048C108.242 13.4457 108.879 15.829 108.695 18.8611H96.9594C97.2285 19.8312 97.7011 20.5796 98.3772 21.1095C99.0598 21.6331 99.9 21.8933 100.898 21.8933C102.42 21.8933 103.75 21.3376 104.888 20.223L107.711 22.9211C105.906 24.8419 103.477 25.799 100.425 25.799C97.7208 25.799 95.5679 25.041 93.9663 23.5249C92.3714 22.0089 91.5771 20.0014 91.5771 17.4993C91.5771 14.9746 92.3714 12.9446 93.9663 11.4093C95.5679 9.86756 97.6683 9.09668 100.268 9.09668ZM96.8675 16.0474H103.563C103.563 15.0549 103.264 14.2551 102.67 13.6449C102.082 13.0378 101.305 12.7327 100.333 12.7327C99.4208 12.7327 98.6561 13.0346 98.0359 13.632C97.4222 14.2327 97.0316 15.0389 96.8675 16.0474Z" fill="#F4F4F4"/>
<path d="M115.82 9.04517C118.278 9.04517 120.572 9.66187 122.699 10.8953L120.874 14.2871C118.806 13.1918 117.054 12.6426 115.61 12.6426C114.514 12.6426 113.969 13.0216 113.969 13.7732C113.969 14.1779 114.264 14.5152 114.862 14.7882C115.456 15.0644 116.188 15.3118 117.054 15.5334C117.92 15.7486 118.78 16.0216 119.64 16.3557C120.497 16.6897 121.222 17.2229 121.819 17.9488C122.423 18.6779 122.725 19.5677 122.725 20.6212C122.725 22.2593 122.072 23.5377 120.769 24.4627C119.473 25.3814 117.783 25.8375 115.702 25.8375C112.742 25.8375 110.244 25.0666 108.206 23.5248L109.899 20.1972C111.869 21.5527 113.841 22.2272 115.82 22.2272C117.034 22.2272 117.645 21.8546 117.645 21.1094C117.645 20.6822 117.349 20.3257 116.765 20.043C116.178 19.7604 115.459 19.5098 114.612 19.285C113.762 19.0634 112.912 18.7839 112.066 18.4499C111.225 18.1158 110.507 17.5987 109.913 16.8953C109.325 16.1854 109.033 15.2957 109.033 14.2229C109.033 12.588 109.663 11.316 110.923 10.4071C112.184 9.50127 113.815 9.04517 115.82 9.04517Z" fill="#F4F4F4"/>
<path d="M139.72 19.2208H134.521V24.3214H131.147V19.2208H125.975V15.9188H131.147V10.8311H134.521V15.9188H139.72V19.2208Z" fill="#06121E"/>
</g>
<defs>
<clipPath id="clip0_1_4">
<rect width="160" height="36" fill="white"/>
</clipPath>
</defs>
</svg>
