<svg width="21" height="20" viewBox="0 0 21 20" fill="none" xmlns="http://www.w3.org/2000/svg">
<path d="M18.887 13.4512L16.0587 13.1414C15.7263 13.1041 15.3894 13.1394 15.0733 13.2447C14.7573 13.35 14.4702 13.5226 14.2337 13.7495L12.1843 15.712C9.02421 14.1718 6.45565 11.7105 4.84828 8.68253L6.90706 6.70849C7.38669 6.25019 7.62049 5.6101 7.54166 4.95848L7.21969 2.2701C7.15641 1.74959 6.89559 1.26955 6.48689 0.921363C6.07819 0.573172 5.55014 0.381146 5.00326 0.381838H3.07808C1.81957 0.381838 0.773482 1.3855 0.85097 2.59015C1.44148 11.7012 9.04466 18.9765 18.5423 19.5423C19.7995 19.6166 20.8469 18.6142 20.8469 17.4082V15.5635C20.8497 15.0418 20.6511 14.5375 20.2893 14.1475C19.9275 13.7576 19.428 13.5096 18.887 13.4512Z" fill="#E3E3E3"/>
</svg>
