<svg width="25" height="30" viewBox="0 0 25 30" fill="none" xmlns="http://www.w3.org/2000/svg">
<path d="M12.5 0C5.93783 0 0 4.90883 0 12.5017C0 17.3501 3.82856 23.053 11.4688 29.6231C11.7575 29.8662 12.1262 30 12.5075 30C12.8888 30 13.2575 29.8662 13.5462 29.6231C21.1714 23.053 25 17.3501 25 12.5017C25 4.90883 19.0622 0 12.5 0ZM12.5 15.2461C10.7807 15.2461 9.37453 13.8739 9.37453 12.1961C9.37453 10.5184 10.7807 9.14619 12.5 9.14619C14.2193 9.14619 15.6255 10.5184 15.6255 12.1961C15.6255 13.8739 14.2193 15.2461 12.5 15.2461Z" fill="#F4F4F4"/>
</svg>
