<svg width="28" height="19" viewBox="0 0 28 19" fill="none" xmlns="http://www.w3.org/2000/svg">
<path d="M27.2847 2.96742C27.1323 2.39357 26.8319 1.86982 26.4134 1.44861C25.995 1.02741 25.4732 0.723532 24.9003 0.567422C22.7981 -1.50686e-07 14.3655 0 14.3655 0C14.3655 0 5.93292 -1.50686e-07 3.82955 0.567422C3.25698 0.72381 2.7355 1.0278 2.31728 1.44897C1.89905 1.87015 1.59875 2.39376 1.4464 2.96742C0.882355 5.08428 0.882355 9.50002 0.882355 9.50002C0.882355 9.50002 0.882355 13.9158 1.4464 16.0326C1.59874 16.6065 1.89918 17.1302 2.31763 17.5514C2.73607 17.9726 3.25784 18.2765 3.83068 18.4326C5.93292 19 14.3655 19 14.3655 19C14.3655 19 22.7981 19 24.9015 18.4326C25.4744 18.2766 25.9962 17.9728 26.4147 17.5516C26.8331 17.1303 27.1335 16.6065 27.2858 16.0326C27.8487 13.9158 27.8487 9.50002 27.8487 9.50002C27.8487 9.50002 27.8487 5.08428 27.2847 2.96742ZM11.6071 13.509V5.49105L18.6554 9.50002L11.6071 13.509Z" fill="#F4F4F4"/>
</svg>
